<?xml version="1.0" encoding="utf-8" standalone="yes"?><svg xmlns="http://www.w3.org/2000/svg" xmlns:xlink="http://www.w3.org/1999/xlink" version="1.1" width="816" height="1056"><!--Generated by Aspose.Words for .NET 18.5--><defs><clipPath id="clip1"><path d="M-1,-1 L276.899993896,-1 L276.899993896,61.5 L-1,61.5 Z" clip-rule="evenodd"></path></clipPath><clipPath id="clip2"><path d="M-0.5,-1 L276.899993896,-1 L276.899993896,61.5 L-0.5,61.5 Z" clip-rule="evenodd"></path></clipPath><style type="text/css">svg{background:white}</style></defs><g transform="scale(1.33333)"><g><path d="M0,0 L600,0 L600,450 L0,450 Z" fill="#ffffff" fill-rule="evenodd"></path><g transform="matrix(1,0,0,1,600,0)"><path d="M0,0 L600,0 L600,450 L0,450 Z" fill="#ffffff" fill-rule="evenodd"></path></g><g transform="matrix(1,0,0,1,0,450)"><path d="M0,0 L600,0 L600,450 L0,450 Z" fill="#ffffff" fill-rule="evenodd"></path></g><g transform="matrix(1,0,0,1,600,450)"><path d="M0,0 L600,0 L600,450 L0,450 Z" fill="#ffffff" fill-rule="evenodd"></path></g><g transform="matrix(1,0,0,1,30,12)"><text><tspan x="195.598007202" y="32.816001892" font-family="Palatino Linotype" font-weight="bold" font-style="normal" font-size="24" fill="#000000">J</tspan><tspan x="204.93800354" y="32.816001892" font-family="Palatino Linotype" font-weight="bold" font-style="normal" font-size="19" fill="#000000">ESSICA </tspan><tspan x="280.307006836" y="32.816001892" font-family="Palatino Linotype" font-weight="bold" font-style="normal" font-size="24" fill="#000000">C</tspan><tspan x="297.639007568" y="32.816001892" font-family="Palatino Linotype" font-weight="bold" font-style="normal" font-size="19" fill="#000000">LAIRE</tspan></text><path d="M-1.450000048,56.5 L553.450012207,56.5 " stroke-width="1" stroke-miterlimit="10" stroke="#000000" fill="none" fill-rule="evenodd"></path><g transform="matrix(1,0,0,1,0,57)"><text><tspan x="0" y="6.050000191" font-family="Palatino Linotype" font-weight="normal" font-style="normal" font-size="1" fill="#000000"> </tspan></text></g><path d="M-1.450000048,60.5 L553.450012207,60.5 " stroke-width="3" stroke-miterlimit="10" stroke="#000000" fill="none" fill-rule="evenodd"></path><g transform="matrix(1,0,0,1,0,63.348999023)"><text><tspan x="0" y="1.049999952" font-family="Palatino Linotype" font-weight="normal" font-style="normal" font-size="1" fill="#000000"> </tspan></text></g><g transform="matrix(1,0,0,1,0,64.697998047)"><text><tspan x="97.351997375" y="25.708000183" font-family="Palatino Linotype" font-weight="normal" font-style="normal" font-size="11" fill="#000000">San Francisco, CA 94105  • (555) 432-1000 • resumesample@example.com </tspan></text></g><g transform="matrix(1,0,0,1,0,99.697998047)"><text><tspan x="0" y="29.809999466" font-family="Palatino Linotype" font-weight="bold" font-style="normal" font-size="14" fill="#000000">Professional Summary</tspan></text></g><g transform="matrix(1,0,0,1,0,143.697998047)"><text><tspan x="0" y="16.408000946" font-family="Palatino Linotype" font-weight="normal" font-style="normal" font-size="12" fill="#000000">Highly motivated Sales Associate with extensive customer service and sales experience. Outgoing sales </tspan><tspan x="0" y="36.408000946" font-family="Palatino Linotype" font-weight="normal" font-style="normal" font-size="12" fill="#000000">professional with track record of driving increased sales, improving buying experience and elevating </tspan><tspan x="0" y="56.408000946" font-family="Palatino Linotype" font-weight="normal" font-style="normal" font-size="12" fill="#000000">company profile with target market.</tspan></text></g><g transform="matrix(1,0,0,1,0,203.697998047)"><text><tspan x="0" y="29.809999466" font-family="Palatino Linotype" font-weight="bold" font-style="normal" font-size="14" fill="#000000">Skills</tspan></text></g><g transform="matrix(1,0,0,1,0,247.697998047)"><g transform="matrix(1,0,0,1,0,0)" clip-path="url(#clip1)"><g transform="matrix(1,0,0,1,12.75,0.25)"><text><tspan x="-0.5" y="15.658000946" font-family="Times New Roman" font-weight="normal" font-style="normal" font-size="9" fill="#000000">●</tspan><tspan x="10.5" y="16.408000946" font-family="Palatino Linotype" font-weight="normal" font-style="normal" font-size="12" fill="#000000">Guest services</tspan></text></g><g transform="matrix(1,0,0,1,12.75,20.25)"><text><tspan x="-0.5" y="15.658000946" font-family="Times New Roman" font-weight="normal" font-style="normal" font-size="9" fill="#000000">●</tspan><tspan x="10.5" y="16.408000946" font-family="Palatino Linotype" font-weight="normal" font-style="normal" font-size="12" fill="#000000">Inventory control procedures</tspan></text></g><g transform="matrix(1,0,0,1,12.75,40.25)"><text><tspan x="-0.5" y="15.658000946" font-family="Times New Roman" font-weight="normal" font-style="normal" font-size="9" fill="#000000">●</tspan><tspan x="10.5" y="16.408000946" font-family="Palatino Linotype" font-weight="normal" font-style="normal" font-size="12" fill="#000000">Merchandising expertise</tspan></text></g></g><g transform="matrix(1,0,0,1,275.899993896,0)" clip-path="url(#clip2)"><g transform="matrix(1,0,0,1,13,0.25)"><text><tspan x="-0.5" y="15.658000946" font-family="Times New Roman" font-weight="normal" font-style="normal" font-size="9" fill="#000000">●</tspan><tspan x="10.5" y="16.408000946" font-family="Palatino Linotype" font-weight="normal" font-style="normal" font-size="12" fill="#000000">Loss prevention</tspan></text></g><g transform="matrix(1,0,0,1,13,20.25)"><text><tspan x="-0.5" y="15.658000946" font-family="Times New Roman" font-weight="normal" font-style="normal" font-size="9" fill="#000000">●</tspan><tspan x="10.5" y="16.408000946" font-family="Palatino Linotype" font-weight="normal" font-style="normal" font-size="12" fill="#000000">Cash register operations</tspan></text></g><g transform="matrix(1,0,0,1,13,40.25)"><text><tspan x="-0.5" y="15.658000946" font-family="Times New Roman" font-weight="normal" font-style="normal" font-size="9" fill="#000000">●</tspan><tspan x="10.5" y="16.408000946" font-family="Palatino Linotype" font-weight="normal" font-style="normal" font-size="12" fill="#000000">Product promotions</tspan></text></g></g><path d="M275.899993896,0 L275.899993896,60.5 " stroke-width="1" stroke-miterlimit="10" stroke="#fefdfd" fill="none" fill-rule="evenodd"></path></g><g transform="matrix(1,0,0,1,0,308.197998047)"><text><tspan x="0" y="29.809999466" font-family="Palatino Linotype" font-weight="bold" font-style="normal" font-size="14" fill="#000000">Work History</tspan></text></g><g transform="matrix(1,0,0,1,0,352.197998047)"><text><tspan x="0" y="16.408000946" font-family="Palatino Linotype" font-weight="bold" font-style="normal" font-size="12" fill="#000000">Senior Sales Associate</tspan><tspan x="122.630996704" y="16.408000946" font-family="Palatino Linotype" font-weight="normal" font-style="normal" font-size="12" fill="#000000">, 03/2015 to Current </tspan></text></g><g transform="matrix(1,0,0,1,0,372.197998047)"><text><tspan x="0" y="16.408000946" font-family="Palatino Linotype" font-weight="bold" font-style="normal" font-size="12" fill="#000000">Bed Bath &amp; Beyond, Inc.</tspan><tspan x="133.770004272" y="16.408000946" font-family="Palatino Linotype" font-weight="normal" font-style="normal" font-size="12" fill="#000000"> – San Francisco, CA</tspan></text></g><g transform="matrix(1,0,0,1,12.5,392.197998047)"><text><tspan x="-0.5" y="15.658000946" font-family="Times New Roman" font-weight="normal" font-style="normal" font-size="9" fill="#000000">●</tspan><tspan x="10.5" y="16.408000946" font-family="Palatino Linotype" font-weight="normal" font-style="normal" font-size="12" fill="#000000">Applied security and loss prevention training toward recognizing risks and reducing store theft</tspan></text></g><g transform="matrix(1,0,0,1,12.5,412.197998047)"><text><tspan x="-0.5" y="15.658000946" font-family="Times New Roman" font-weight="normal" font-style="normal" font-size="9" fill="#000000">●</tspan><tspan x="10.5" y="16.408000946" font-family="Palatino Linotype" font-weight="normal" font-style="normal" font-size="12" fill="#000000">Trained and developed sales team associates in products, selling techniques and procedures</tspan></text></g><g transform="matrix(1,0,0,1,12.5,432.197998047)"><text><tspan x="-0.5" y="15.658000946" font-family="Times New Roman" font-weight="normal" font-style="normal" font-size="9" fill="#000000">●</tspan><tspan x="10.5" y="16.408000946" font-family="Palatino Linotype" font-weight="normal" font-style="normal" font-size="12" fill="#000000">Maintained organized, presentable merchandise to drive continuous sales</tspan></text></g><g transform="matrix(1,0,0,1,12.5,452.197998047)"><text><tspan x="-0.5" y="15.658000946" font-family="Times New Roman" font-weight="normal" font-style="normal" font-size="9" fill="#000000">●</tspan><tspan x="10.5" y="16.408000946" font-family="Palatino Linotype" font-weight="normal" font-style="normal" font-size="12" fill="#000000">Implemented up-selling strategies for recommending accessories and complementary purchases</tspan></text></g><g transform="matrix(1,0,0,1,0,472.197998047)"><text><tspan x="0" y="36.408000946" font-family="Palatino Linotype" font-weight="bold" font-style="normal" font-size="12" fill="#000000">Sales Associate</tspan><tspan x="83.630996704" y="36.408000946" font-family="Palatino Linotype" font-weight="normal" font-style="normal" font-size="12" fill="#000000">, 06/2013 to 03/2015 </tspan></text></g><g transform="matrix(1,0,0,1,0,512.197998047)"><text><tspan x="0" y="16.408000946" font-family="Palatino Linotype" font-weight="bold" font-style="normal" font-size="12" fill="#000000">Target</tspan><tspan x="35.338001251" y="16.408000946" font-family="Palatino Linotype" font-weight="normal" font-style="normal" font-size="12" fill="#000000"> – San Francisco, CA</tspan></text></g><g transform="matrix(1,0,0,1,12.5,532.197998047)"><text><tspan x="-0.5" y="15.658000946" font-family="Times New Roman" font-weight="normal" font-style="normal" font-size="9" fill="#000000">●</tspan><tspan x="10.5" y="16.408000946" font-family="Palatino Linotype" font-weight="normal" font-style="normal" font-size="12" fill="#000000">Maintained organized, presentable merchandise to drive continuous sales</tspan></text></g><g transform="matrix(1,0,0,1,12.5,552.197998047)"><text><tspan x="-0.5" y="15.658000946" font-family="Times New Roman" font-weight="normal" font-style="normal" font-size="9" fill="#000000">●</tspan><tspan x="10.5" y="16.408000946" font-family="Palatino Linotype" font-weight="normal" font-style="normal" font-size="12" fill="#000000">Organized racks and shelves to maintain store visual appeal, engage customers and promote </tspan><tspan x="10.5" y="36.408000946" font-family="Palatino Linotype" font-weight="normal" font-style="normal" font-size="12" fill="#000000">merchandise</tspan></text></g><g transform="matrix(1,0,0,1,12.5,592.197998047)"><text><tspan x="-0.5" y="15.658000946" font-family="Times New Roman" font-weight="normal" font-style="normal" font-size="9" fill="#000000">●</tspan><tspan x="10.5" y="16.408000946" font-family="Palatino Linotype" font-weight="normal" font-style="normal" font-size="12" fill="#000000">Evaluated inventory and delivery needs, optimizing strategies to meet customer demands</tspan></text></g><g transform="matrix(1,0,0,1,12.5,612.197998047)"><text><tspan x="-0.5" y="15.658000946" font-family="Times New Roman" font-weight="normal" font-style="normal" font-size="9" fill="#000000">●</tspan><tspan x="10.5" y="16.408000946" font-family="Palatino Linotype" font-weight="normal" font-style="normal" font-size="12" fill="#000000">Analyzed and processed returns, assisting customers with finding alternative merchandise to meet </tspan><tspan x="10.5" y="36.408000946" font-family="Palatino Linotype" font-weight="normal" font-style="normal" font-size="12" fill="#000000">needs</tspan></text></g><g transform="matrix(1,0,0,1,0,652.197998047)"><text><tspan x="0" y="29.809999466" font-family="Palatino Linotype" font-weight="bold" font-style="normal" font-size="14" fill="#000000">Education</tspan></text></g><g transform="matrix(1,0,0,1,0,696.197998047)"><text><tspan x="0" y="16.408000946" font-family="Palatino Linotype" font-weight="bold" font-style="normal" font-size="12" fill="#000000">Bachelor of Arts</tspan><tspan x="88.59400177" y="16.408000946" font-family="Palatino Linotype" font-weight="normal" font-style="normal" font-size="12" fill="#000000">: Business Administration, 2013 </tspan></text></g><g transform="matrix(1,0,0,1,0,716.197998047)"><text><tspan x="0" y="16.408000946" font-family="Palatino Linotype" font-weight="bold" font-style="normal" font-size="12" fill="#000000">San Francisco State University</tspan><tspan x="166.31199646" y="16.408000946" font-family="Palatino Linotype" font-weight="normal" font-style="normal" font-size="12" fill="#000000"> - San Francisco, CA</tspan></text></g></g></g></g></svg>